<?xml version="1.0" encoding="utf-8"?>
<!-- Generator: Adobe Illustrator 16.0.0, SVG Export Plug-In . SVG Version: 6.00 Build 0)  -->
<!DOCTYPE svg PUBLIC "-//W3C//DTD SVG 1.1//EN" "http://www.w3.org/Graphics/SVG/1.1/DTD/svg11.dtd">
<svg version="1.1" id="Layer_1" xmlns="http://www.w3.org/2000/svg" xmlns:xlink="http://www.w3.org/1999/xlink" x="0px" y="0px"
	 width="285px" height="100px" viewBox="0 0 285 100" enable-background="new 0 0 285 100" xml:space="preserve">
<g>
	<g>
		<polygon fill="#2C4CEF" points="57.703,49.974 72.129,74.959 86.555,99.945 57.703,99.945 28.852,99.945 43.277,74.959 		"/>
		<polygon fill="#29ABE2" points="86.555,49.974 57.703,49.974 72.129,74.959 86.555,99.945 100.98,74.959 115.406,49.974 		"/>
		<polygon fill="#40EFC1" points="100.98,24.986 86.555,0 72.129,24.986 57.703,49.974 86.555,49.974 115.406,49.974 		"/>
		<polygon fill="#21F3F9" points="57.703,0 28.852,0 43.277,24.986 57.703,49.974 72.129,24.986 86.555,0 		"/>
		<polygon fill="#29ABE2" points="43.277,24.986 28.852,0 14.426,24.986 0,49.974 28.852,49.974 57.703,49.974 		"/>
		<polygon fill="#217EF9" points="28.852,50.028 0,50.028 14.426,75.014 28.852,100 43.277,75.014 57.703,50.028 		"/>
	</g>
	<g>
		<g>
			<path d="M265.242,54.982c-1.932,4.421-6.342,7.512-11.475,7.512c-6.916,0-12.521-5.605-12.521-12.521
				c0-6.916,5.605-12.521,12.521-12.521c5.133,0,9.543,3.092,11.475,7.512h13.064c-2.32-11.43-12.424-20.032-24.539-20.032
				c-13.83,0-25.041,11.211-25.041,25.041c0,13.83,11.211,25.04,25.041,25.04c12.115,0,22.219-8.602,24.539-20.031H265.242z"/>
			<path d="M204.188,24.939v-0.006h-12.52v0h-12.521v0v12.52v12.521h12.521V37.453h12.52v0.013
				c6.682,0.264,12.018,5.761,12.018,12.508s-5.336,12.245-12.018,12.508v0.013h-25.041v12.52h25.041v-0.007
				c13.598-0.267,24.539-11.37,24.539-25.033C228.727,36.312,217.785,25.206,204.188,24.939z"/>
			<path d="M154.607,24.939v-0.006h-12.52v0h-12.523v0v12.52v12.521h12.523V37.453h12.52v0.013
				c6.682,0.264,12.02,5.761,12.02,12.508s-5.338,12.245-12.02,12.508v0.013h-25.043v12.52h25.043v-0.007
				c13.598-0.267,24.539-11.37,24.539-25.033C179.146,36.312,168.205,25.206,154.607,24.939z"/>
		</g>
		<g>
			<path d="M132.404,95.486h-2.84v-8.034h2.84C137.307,87.475,137.307,95.463,132.404,95.486z M131.49,93.615h0.914
				c2.398,0,2.398-4.292,0-4.292h-0.914V93.615z"/>
			<path d="M141.01,92.777v-5.325c0.613,0,1.26,0,1.859,0v5.36c0,1.768-1.451,2.788-2.998,2.788c-1.537,0-2.988-1.021-2.988-2.788
				v-5.36c0.602,0,1.236,0,1.838,0v5.325c0,0.654,0.59,0.976,1.15,0.976C140.43,93.753,141.01,93.432,141.01,92.777z"/>
			<path d="M150.58,95.188v0.299h-2.15l-1.291-2.365h-0.998v2.365c-0.646,0-1.303,0-1.926,0c0-2.674,0-5.348,0-8.034
				c1.086,0,2.203,0,3.301,0c2.957,0.012,3.494,3.81,1.592,5.188L150.58,95.188z M147.516,89.288c-0.451-0.011-0.926,0-1.375,0
				c0,0.654,0,1.344,0,1.985h1.375C148.559,91.273,148.613,89.299,147.516,89.288z"/>
			<path d="M156.041,94.477h-2.967l-0.443,1.01h-1.881v-0.299l3.387-7.838h0.828l3.396,7.838v0.299h-1.881L156.041,94.477z
				 M154.547,90.597l-0.838,2.112h1.697L154.547,90.597z"/>
			<path d="M160.877,91.537v3.949c-0.666,0-1.332,0-1.988,0v-8.068h0.697l3.807,3.972v-3.938c0.656,0,1.313,0,1.969,0v8.045h-0.689
				L160.877,91.537z"/>
			<path d="M170.176,87.35c1.516,0.012,3.098,0.849,3.463,2.846h-1.893c-0.313-0.689-0.807-0.965-1.57-0.965
				c-1.215,0-1.869,1.01-1.869,2.238c0,1.33,0.73,2.204,1.869,2.204c0.775,0,1.27-0.218,1.613-0.987h-1.602v-1.779h3.559
				c0.041,0.805,0.041,1.572-0.215,2.353c-0.537,1.677-1.969,2.319-3.355,2.319c-1.914,0-3.85-1.365-3.859-4.109
				C166.326,88.726,168.262,87.35,170.176,87.35z"/>
			<path d="M174.33,91.48c0-5.555,7.719-5.555,7.719,0C182.049,97.047,174.33,97.047,174.33,91.48z M180.082,91.48
				c0-2.893-3.773-2.893-3.773,0C176.309,94.396,180.082,94.396,180.082,91.48z"/>
			<path d="M188.756,95.486h-2.838v-8.034h2.838C193.66,87.475,193.66,95.463,188.756,95.486z M187.842,93.615h0.914
				c2.398,0,2.398-4.292,0-4.292h-0.914V93.615z"/>
			<path d="M197.363,92.777v-5.325c0.611,0,1.236,0,1.838,0v5.36c0,1.768-1.43,2.788-2.979,2.788c-1.537,0-2.99-1.021-2.99-2.788
				v-5.36c0.604,0,1.238,0,1.84,0v5.325c0,0.654,0.592,0.976,1.15,0.976S197.363,93.432,197.363,92.777z"/>
			<path d="M204.615,94.477h-2.967l-0.439,1.01h-1.883v-0.299l3.387-7.838h0.828l3.396,7.838v0.299h-1.881L204.615,94.477z
				 M203.121,90.608l-0.85,2.112h1.721L203.121,90.608z"/>
			<path d="M213.824,95.188v0.299h-2.15l-1.289-2.365h-1v2.365c-0.646,0-1.301,0-1.924,0c0-2.674,0-5.348,0-8.034
				c1.086,0,2.203,0,3.299,0c2.957,0.012,3.496,3.81,1.592,5.188L213.824,95.188z M210.76,89.288c-0.451-0.011-0.924,0-1.375,0
				c0,0.654,0,1.365,0,2.009h1.375C211.803,91.297,211.857,89.299,210.76,89.288z"/>
			<path d="M213.828,89.288c0-0.62,0-1.229,0-1.836h5.59c0,0.607,0,1.216,0,1.836h-1.838v6.198c-0.635,0-1.27,0-1.902,0v-6.198
				H213.828z"/>
			<path d="M224.725,89.288c-1.119,0-1.678,0-2.785,0v1.136h2.559c0,0.609,0,1.217,0,1.826h-2.559c0,0.471,0,0.93,0,1.411
				c1.107,0,1.752,0,2.881,0c0,0.597,0,1.216,0,1.825c-1.762,0-3.053,0-4.795,0c0-2.688,0-5.372,0-8.034c1.742,0,2.936,0,4.699,0
				C224.725,88.049,224.725,88.668,224.725,89.288z"/>
			<path d="M232.303,87.361c1.559,0,3.246,0.905,3.537,3.051c-0.656,0-1.236,0-1.893,0c-0.268-0.814-0.838-1.182-1.645-1.182
				c-1.129,0-1.871,0.908-1.871,2.238c0,1.183,0.732,2.216,1.871,2.227c0.816,0,1.473-0.437,1.676-1.297c0.646,0,1.236,0,1.893,0
				c-0.279,2.273-1.967,3.168-3.568,3.168c-1.914,0.012-3.85-1.365-3.859-4.098C228.453,88.738,230.389,87.361,232.303,87.361z"/>
			<path d="M243.08,95.486c-0.656,0-1.311,0-1.967,0V92.26h-2.322v3.227c-0.656,0-1.322,0-1.969,0v-8.034c0.646,0,1.313,0,1.969,0
				v2.915h2.322v-2.915c0.656,0,1.311,0,1.967,0V95.486z"/>
			<path d="M248.885,94.477h-2.967l-0.439,1.01h-1.883v-0.299l3.387-7.838h0.828l3.396,7.838v0.299h-1.881L248.885,94.477z
				 M247.391,90.608l-0.85,2.112h1.721L247.391,90.608z"/>
			<path d="M253.723,91.537v3.949c-0.668,0-1.334,0-1.988,0v-8.068h0.697l3.807,3.972v-3.938c0.654,0,1.311,0,1.967,0v8.045h-0.688
				L253.723,91.537z"/>
			<path d="M261.596,91.537v3.949c-0.668,0-1.334,0-1.99,0v-8.068h0.699l3.807,3.972v-3.938c0.654,0,1.311,0,1.967,0v8.045h-0.689
				L261.596,91.537z"/>
			<path d="M272.176,89.288c-1.117,0-1.678,0-2.785,0v1.136h2.559c0,0.609,0,1.217,0,1.826h-2.559c0,0.471,0,0.93,0,1.411
				c1.107,0,1.752,0,2.881,0c0,0.597,0,1.216,0,1.825c-1.762,0-3.051,0-4.793,0c0-2.688,0-5.372,0-8.034c1.742,0,2.934,0,4.697,0
				C272.176,88.049,272.176,88.668,272.176,89.288z"/>
			<path d="M275.41,93.638h2.73c0,0.688,0,1.161,0,1.849c-1.549,0-3.141,0-4.666,0v-8.034c0.645,0,1.279,0,1.936,0
				C275.41,91.607,275.41,90.219,275.41,93.638z"/>
		</g>
	</g>
</g>
</svg>
